<svg xmlns="http://www.w3.org/2000/svg" style="display: none;"><symbol id="weather-app" viewBox="0 0 497 497"><title>weather-app</title><path d="m162.994 0v270c74.558 0 135-60.441 135-135s-60.442-135-135-135z" fill="#ffbc2b"/><path d="m267.994 135c0-74.559-47.01-135-105-135-74.558 0-135 60.441-135 135s60.442 135 135 135c57.99 0 105-60.441 105-135z" fill="#ffcf66"/><path d="m0 308.5c0 49.706 40.294 90 90 90h317c49.706 0 90-40.294 90-90z" fill="#bdf2ff"/><path d="m90 368.5h317c49.706 0 90-26.863 90-60 0-39.513-25.465-73.077-60.878-85.181-4.837-28.285-29.457-49.819-59.122-49.819-2.478 0-4.916.168-7.315.46-22.003-44.698-67.998-75.46-121.185-75.46s-99.182 30.762-121.185 75.46c-2.399-.292-4.837-.46-7.315-.46-29.665 0-54.285 21.534-59.122 49.819-35.413 12.104-60.878 45.668-60.878 85.181 0 33.137 40.294 60 90 60z" fill="#e5faff"/><path d="m407.447 299.023c.003 0-22.362-34.438-37.763-58.153-.001.001-.001 127.63-.001 127.63 24.853 0 45-20.147 45-45 0-9.027-2.66-17.432-7.236-24.477z" fill="#28a6fa"/><path d="m384.683 323.5c0-9.027-.887-17.432-2.412-24.477.001 0-7.454-34.438-12.587-58.152-15.403 23.715-37.768 58.152-37.768 58.152-4.573 7.045-7.233 15.45-7.233 24.477 0 24.853 20.147 45 45 45 8.284 0 15-20.147 15-45z" fill="#24c0ff"/><path d="m139.183 398.5c0 16.569 13.431 30 30 30s30-13.431 30-30c0-6.018-1.773-11.621-4.824-16.318.002 0-14.908-22.959-25.175-38.769-10.269 15.81-25.179 38.769-25.179 38.769-3.049 4.697-4.822 10.3-4.822 16.318z" fill="#24c0ff"/><path d="m333.035 404.364c.004 0-29.816-45.918-50.35-77.538-.001.001-.002 170.174-.002 170.174 33.137 0 60-26.863 60-60 0-12.036-3.546-23.242-9.648-32.636z" fill="#28a6fa"/><path d="m312.683 437c0-12.036-1.773-23.242-4.824-32.636.002 0-14.908-45.917-25.175-77.537-20.537 31.62-50.357 77.537-50.357 77.537-6.097 9.394-9.644 20.6-9.644 32.636 0 33.137 26.863 60 60 60 16.569 0 30-26.863 30-60z" fill="#24c0ff"/></symbol></svg>